<?xml version="1.0" encoding="UTF-8"?>
<svg version="1.1" xmlns="http://www.w3.org/2000/svg" width="375" height="436">
<path d="M0 0 C3.89385394 1.35112295 6.35299296 4.12453939 9.203125 7.0078125 C9.6857782 7.49329559 10.1684314 7.97877869 10.66571045 8.47897339 C12.19858562 10.02299866 13.72434004 11.57384824 15.25 13.125 C16.29120361 14.17624009 17.33286541 15.22702657 18.375 16.27734375 C20.92199464 18.84633004 23.46265177 21.42148161 26 24 C24.41888078 27.87510608 21.78812864 30.48673956 18.8621521 33.37835693 C18.333665 33.90855289 17.80517789 34.43874884 17.26067603 34.98501134 C15.48888669 36.76009449 13.71004456 38.5279356 11.93115234 40.29589844 C10.65950799 41.56697865 9.38830386 42.83849941 8.11750793 44.11042786 C4.66558931 47.5629209 1.20753374 51.00920767 -2.2516408 54.45442867 C-5.86537078 58.05566619 -9.47344742 61.6625586 -13.0821228 65.26885986 C-19.91688022 72.09739816 -26.75672045 78.92082169 -33.59839284 85.74243093 C-41.38699406 93.50868662 -49.16992503 101.28061406 -56.95238042 109.05302763 C-72.96194384 125.04167925 -88.97862938 141.02318038 -105 157 C-103.54805911 160.03047456 -102.1078344 162.13730256 -99.71533203 164.51171875 C-99.04768829 165.17921143 -98.38004456 165.8467041 -97.69216919 166.53442383 C-96.97133148 167.24493896 -96.25049377 167.9554541 -95.5078125 168.6875 C-94.76546356 169.42701904 -94.02311462 170.16653809 -93.25827026 170.9284668 C-90.88516979 173.29038324 -88.50521975 175.64526028 -86.125 178 C-84.52948926 179.58547608 -82.93443185 181.17140849 -81.33984375 182.7578125 C-77.81685931 186.26115831 -74.28954343 189.76007511 -70.7583313 193.25512695 C-68.83377815 195.16494959 -66.91720204 197.08279796 -65 199 C-59.06 193.06 -53.12 187.12 -47 181 C-42.99978784 183.00010608 -40.91000659 184.85848171 -37.796875 188.0078125 C-37.3142218 188.49329559 -36.8315686 188.97877869 -36.33428955 189.47897339 C-34.80141438 191.02299866 -33.27565996 192.57384824 -31.75 194.125 C-30.70879639 195.17624009 -29.66713459 196.22702657 -28.625 197.27734375 C-26.07800536 199.84633004 -23.53734823 202.42148161 -21 205 C-22.4264578 208.2586636 -24.16704162 210.4024854 -26.6953125 212.890625 C-27.41074219 213.59960938 -28.12617188 214.30859375 -28.86328125 215.0390625 C-29.98283203 216.13347656 -29.98283203 216.13347656 -31.125 217.25 C-31.87910156 217.99507812 -32.63320312 218.74015625 -33.41015625 219.5078125 C-35.26900772 221.3431342 -37.13237005 223.1736191 -39 225 C-35.01453425 229.73931362 -30.88680149 234.18168622 -26.44140625 238.49609375 C-24.4646374 240.52346789 -22.61797625 242.57843636 -20.7734375 244.72265625 C-16.74669609 249.36422528 -12.43000972 253.68114292 -8.0625 258 C-6.89364258 259.16208984 -6.89364258 259.16208984 -5.70117188 260.34765625 C-3.8030758 262.23410757 -1.90266851 264.11816245 0 266 C3.11465846 264.61565262 5.23098131 263.01680359 7.63201904 260.60848999 C8.33589249 259.90736588 9.03976593 259.20624176 9.76496887 258.48387146 C10.52669907 257.71495071 11.28842926 256.94602997 12.07324219 256.15380859 C12.88337265 255.34397018 13.69350311 254.53413177 14.52818298 253.69975281 C17.20584785 251.02069416 19.87635816 248.33461989 22.546875 245.6484375 C24.40160245 243.7899801 26.25677184 241.93196365 28.11236572 240.07437134 C32.49720961 235.68331439 36.87693083 231.28718468 41.25483155 226.88920653 C46.2399928 221.8816809 51.23084273 216.87984156 56.22217703 211.87847018 C66.48778972 201.59195943 76.74624548 191.29833103 87 181 C83.75078659 177.09267567 80.54768077 173.38558019 76.64697266 170.10473633 C72.16751768 166.27602118 67.80065063 162.34214978 63.45751953 158.35961914 C61.58873816 156.67913336 59.68963007 155.03169648 57.76025391 153.42114258 C50.47657062 147.30498165 46.81493321 142.18506381 41 134 C41 122.12 41 110.24 41 98 C89.18 98 137.36 98 187 98 C187 137.21274038 187 137.21274038 173.57958984 151.03710938 C172.61230957 151.85501953 171.6450293 152.67292969 170.6484375 153.515625 C169.546946 154.46574805 168.44638858 155.41695488 167.34667969 156.36914062 C166.79540405 156.83993042 166.24412842 157.31072021 165.67614746 157.79577637 C162.83495166 160.26079462 160.09940513 162.83824672 157.3515625 165.40625 C151.9951327 170.38255532 146.54023179 175.2282982 141 180 C142.33452876 182.75344586 143.61308087 184.89028086 145.7109375 187.125 C146.28328125 187.73609619 146.855625 188.34719238 147.4453125 188.97680664 C148.08210938 189.64446045 148.71890625 190.31211426 149.375 191 C150.0453125 191.70825928 150.715625 192.41651855 151.40625 193.14624023 C163.0309787 205.32916856 175.05296667 217.13481292 187 229 C182.70999655 234.12502518 178.21757245 238.92299307 173.48294067 243.63731384 C172.74685825 244.37425069 172.01077583 245.11118754 171.25238788 245.8704558 C168.79969407 248.32478907 166.34345744 250.77554488 163.88720703 253.22631836 C162.12258279 254.99066037 160.35817902 256.75522293 158.59397888 258.51998901 C154.80265346 262.31154173 151.00980687 266.10156262 147.21554947 269.89018059 C141.72978202 275.36779983 136.24679805 280.84819839 130.76447617 286.3292659 C121.86837821 295.22317855 112.97005223 304.11485858 104.0703125 313.00512695 C95.42818626 321.63806559 86.78711734 330.27206028 78.14746094 338.9074707 C77.61436507 339.44030385 77.0812692 339.97313699 76.53201891 340.52211659 C73.85747674 343.19535367 71.18295526 345.86861146 68.50844407 348.54187953 C46.34217012 370.6977971 24.17223782 392.85005061 2 415 C-1.93323046 413.17498968 -4.65747833 410.63069859 -7.688797 407.58535767 C-8.25236694 407.02702441 -8.81593687 406.46869115 -9.39658469 405.8934387 C-11.2845635 404.02046726 -13.16531961 402.14040908 -15.04614258 400.26025391 C-16.39769934 398.91631781 -17.74965835 397.57278614 -19.10198975 396.22962952 C-22.77393199 392.5796409 -26.43927195 388.92309175 -30.10279298 385.26465273 C-32.38997883 382.98110768 -34.678458 380.69886695 -36.96738243 378.41706467 C-44.9467898 370.46214922 -52.92046248 362.50153167 -60.8894043 354.53613281 C-68.32804574 347.10113235 -75.77973211 339.67938246 -83.23743516 332.26350653 C-89.6335507 325.90201542 -96.0200788 319.53100534 -102.39925498 313.15252817 C-106.2123275 309.34025076 -110.02932135 305.53210436 -113.85614967 301.73363113 C-117.45155417 298.16427452 -121.03494805 294.58329289 -124.60928345 290.99284172 C-125.9260134 289.67428701 -127.24706275 288.36003018 -128.57260704 287.05033684 C-130.37550964 285.26769386 -132.16247821 283.470492 -133.94612122 281.66860962 C-134.47936549 281.14856531 -135.01260977 280.628521 -135.56201297 280.09271777 C-136.9946413 278.62618446 -136.9946413 278.62618446 -139 276 C-138.87795219 271.99313389 -136.42094861 270.05783459 -133.66381836 267.32324219 C-132.7429393 266.40258972 -131.82206024 265.48193726 -130.87327576 264.53338623 C-129.86229096 263.53772081 -128.8511431 262.54222093 -127.83984375 261.546875 C-126.80928859 260.52191674 -125.77939506 259.49629286 -124.75013733 258.47003174 C-122.04249408 255.77382983 -119.32596228 253.08675928 -116.60748291 250.40148926 C-113.83381027 247.65853271 -111.06863571 244.90703876 -108.30273438 242.15625 C-102.87677256 236.7624398 -97.44139257 231.37824766 -92 226 C-92.94153766 224.8907817 -93.88463382 223.78288621 -94.82836914 222.67553711 C-95.35338516 222.05843369 -95.87840118 221.44133026 -96.41932678 220.80552673 C-99.46222192 217.32977446 -102.81858216 214.16700345 -106.12109375 210.94140625 C-108.23160907 208.8367294 -110.18653965 206.64411381 -112.12207031 204.37792969 C-116.18801662 199.71321703 -120.52877902 195.36246364 -124.92578125 191.01171875 C-125.75458298 190.18670364 -126.5833847 189.36168854 -127.43730164 188.51167297 C-130.05993869 185.9011585 -132.68580746 183.29393341 -135.3125 180.6875 C-138.79062184 177.23593595 -142.26544313 173.78109809 -145.73828125 170.32421875 C-146.53720291 169.53359543 -147.33612457 168.74297211 -148.15925598 167.9283905 C-148.89729965 167.19365005 -149.63534332 166.45890961 -150.39575195 165.7019043 C-151.04526321 165.05762985 -151.69477448 164.41335541 -152.3639679 163.7495575 C-154 162 -154 162 -156 159 C-155.71430668 155.35219602 -153.96232601 153.59291979 -151.43417358 151.08013916 C-150.66881287 150.31209961 -149.90345215 149.54406006 -149.11489868 148.75274658 C-148.26922333 147.9194281 -147.42354797 147.08610962 -146.55224609 146.22753906 C-145.66601562 145.34247681 -144.77978516 144.45741455 -143.86669922 143.54553223 C-141.93783268 141.62139182 -140.00646502 139.70022942 -138.07020187 137.78357697 C-135.00276445 134.74719599 -131.94576737 131.7004467 -128.89004517 128.65228271 C-124.04865519 123.82538927 -119.20010214 119.00576261 -114.34857523 114.18905997 C-105.67977102 105.58204502 -97.02289488 96.96304206 -88.368981 88.34105849 C-85.33571033 85.31955144 -82.29928515 82.30126187 -79.26010585 79.28569841 C-77.81965807 77.85581833 -76.38036465 76.4247876 -74.94152832 74.99328613 C-73.19577777 73.25663252 -71.4481802 71.52183254 -69.69827271 69.78936768 C-65.48888891 65.59591579 -61.46259001 61.32097829 -57.58795547 56.81687355 C-55.25870174 54.15183692 -52.78723192 51.64718941 -50.2800293 49.15063477 C-49.49327568 48.36125267 -49.49327568 48.36125267 -48.69062805 47.55592346 C-46.98763343 45.84859155 -45.28108436 44.14486753 -43.57421875 42.44140625 C-42.37817547 41.2446882 -41.18228057 40.04782184 -39.98652649 38.85081482 C-37.49613645 36.35895937 -35.00396881 33.86889957 -32.51049805 31.38012695 C-29.31144734 28.18681023 -26.11695746 24.98897432 -22.92375469 21.78981113 C-20.46266317 19.32511436 -17.9992053 16.86279391 -15.5350132 14.40119743 C-14.3552895 13.22214118 -13.17630919 12.04234063 -11.99808311 10.8617878 C-10.35879085 9.21996561 -8.71634447 7.58136639 -7.07299805 5.94360352 C-6.1392485 5.01064957 -5.20549896 4.07769562 -4.24345398 3.11647034 C-2 1 -2 1 0 0 Z M93 134 C97.69877596 139.53160674 97.69877596 139.53160674 102.6484375 144.74609375 C103.26074219 145.35517578 103.87304688 145.96425781 104.50390625 146.59179688 C105.43009766 147.50541992 105.43009766 147.50541992 106.375 148.4375 C107.01566406 149.07365234 107.65632813 149.70980469 108.31640625 150.36523438 C109.87530879 151.91250332 111.43651416 153.45736492 113 155 C118.04820879 150.77041966 122.79646277 146.35800414 127.4375 141.6875 C128.07365234 141.05521484 128.70980469 140.42292969 129.36523438 139.77148438 C129.96529297 139.17013672 130.56535156 138.56878906 131.18359375 137.94921875 C131.72556396 137.40612061 132.26753418 136.86302246 132.82592773 136.3034668 C134.11154409 135.16854135 134.11154409 135.16854135 134 134 C120.47 134 106.94 134 93 134 Z M110.23814392 209.64833069 C108.98813986 210.89848481 107.74095341 212.15145948 106.49584961 213.40649414 C105.47615082 214.42838333 105.47615082 214.42838333 104.43585205 215.47091675 C102.95275829 216.95782913 101.47082119 218.44589586 99.98988152 219.93495369 C97.64179441 222.29576275 95.29063424 224.65347067 92.93861389 227.01036072 C87.09017991 232.87219728 81.2470921 238.7393538 75.40393066 244.60644531 C70.47992326 249.55024317 65.55383789 254.49195277 60.62500191 259.43093681 C58.31653165 261.74585882 56.01111405 264.06379139 53.70579529 266.3818512 C52.27398451 267.81729876 50.84203074 269.25260372 49.40991211 270.68774414 C48.77634293 271.32647964 48.14277374 271.96521515 47.49000549 272.62330627 C43.71027976 276.40347101 39.80145564 279.97027599 35.75683689 283.46509457 C33.82645598 285.15162116 32.00133529 286.90719603 30.21777344 288.74804688 C29.59062439 289.39140991 28.96347534 290.03477295 28.31732178 290.69763184 C27.67119934 291.36460083 27.0250769 292.03156982 26.359375 292.71875 C24.94590289 294.15943364 23.5318232 295.59952139 22.1171875 297.0390625 C19.91677788 299.28298584 17.72051776 301.53044376 15.53417969 303.78808594 C13.40384219 305.98467116 11.25822582 308.16529338 9.109375 310.34375 C8.12804596 311.36849426 8.12804596 311.36849426 7.12689209 312.41394043 C6.51235168 313.03208618 5.89781128 313.65023193 5.26464844 314.28710938 C4.72918396 314.83669312 4.19371948 315.38627686 3.64202881 315.95251465 C2 317 2 317 -0.09080505 316.76051331 C-2.50189912 315.8000723 -3.82480919 314.5314346 -5.64453125 312.68359375 C-6.32193359 312.00103516 -6.99933594 311.31847656 -7.69726562 310.61523438 C-8.39529297 309.89658203 -9.09332031 309.17792969 -9.8125 308.4375 C-10.49892578 307.74591797 -11.18535156 307.05433594 -11.89257812 306.34179688 C-15.10639444 303.07933244 -18.2088593 299.76664995 -21.19702148 296.29638672 C-25.23147268 291.66603417 -29.53523501 287.33849673 -33.890625 283.01171875 C-34.71705505 282.18670364 -35.54348511 281.36168854 -36.3949585 280.51167297 C-39.01094595 277.90123638 -41.63040237 275.29431322 -44.25 272.6875 C-46.02366967 270.91885259 -47.79710937 269.14997452 -49.5703125 267.38085938 C-53.45932815 263.50162819 -57.35052694 259.6246027 -61.24371338 255.7495575 C-62.83105913 254.16829358 -64.41569225 252.58430775 -66 251 C-73.59 258.59 -81.18 266.18 -89 274 C-84.18701794 279.64923665 -84.18701794 279.64923665 -79.12747192 284.99278259 C-78.42084915 285.70078003 -77.71422638 286.40877747 -76.9861908 287.13822937 C-76.23165115 287.88917374 -75.47711151 288.6401181 -74.69970703 289.41381836 C-73.88928452 290.2243869 -73.078862 291.03495544 -72.24388123 291.87008667 C-69.58422366 294.52905167 -66.92104946 297.18446431 -64.2578125 299.83984375 C-62.40528887 301.69050087 -60.55298696 303.54137997 -58.70089722 305.39247131 C-54.3363152 309.75395677 -49.96919248 314.11288886 -45.60113037 318.47088867 C-40.62448894 323.43631671 -35.65071823 328.4046161 -30.67717576 333.37314785 C-20.45462131 343.58527587 -10.22850167 353.79382877 0 364 C3.92570652 362.40821971 6.56640918 359.70805719 9.49224854 356.7482605 C10.03469515 356.20752274 10.57714176 355.66678498 11.13602614 355.10966122 C12.9525674 353.29641438 14.76186772 351.47611144 16.57128906 349.65576172 C17.87192556 348.3545611 19.17300257 347.05380068 20.4744873 345.75344849 C24.00755599 342.22095427 27.53441876 338.68232188 31.06021595 335.14257193 C34.74553558 331.44476067 38.43650928 327.75260198 42.12689209 324.05984497 C49.11480194 317.06571575 56.09759734 310.06650331 63.07857871 303.06545937 C71.02620987 295.09548347 78.97951209 287.13117714 86.9333005 279.16734672 C103.29519401 262.78454084 119.6499374 246.39461256 136 230 C135.0451641 228.87988665 134.08945406 227.76051843 133.13337708 226.64146423 C132.60126019 226.01803603 132.06914331 225.39460783 131.52090168 224.75228786 C129.73609849 222.69594917 127.87271286 220.74333035 125.94921875 218.81640625 C124.90217773 217.76743164 124.90217773 217.76743164 123.83398438 216.69726562 C122.77147461 215.64055664 122.77147461 215.64055664 121.6875 214.5625 C120.95982422 213.83095703 120.23214844 213.09941406 119.48242188 212.34570312 C118.44504883 211.31026367 118.44504883 211.31026367 117.38671875 210.25390625 C116.44638794 209.31526733 116.44638794 209.31526733 115.48706055 208.35766602 C112.86723652 205.96580238 113.10046631 206.90366333 110.23814392 209.64833069 Z " fill="#000000" transform="translate(171,7)"/>
</svg>
